<mxfile host="app.diagrams.net" modified="2023-11-27T03:04:17.213Z" agent="Mozilla/5.0 (Windows NT 10.0; Win64; x64) AppleWebKit/537.36 (KHTML, like Gecko) Chrome/118.0.0.0 Safari/537.36 OPR/104.0.0.0" etag="OmBPZnY2ylS5Y_FHRoJu" version="22.1.4" type="device">
  <diagram name="PÃ¡gina-1" id="1cu1nDOAknKQ9EofFCga">
    <mxGraphModel dx="2220" dy="1966" grid="0" gridSize="10" guides="1" tooltips="1" connect="1" arrows="1" fold="1" page="1" pageScale="1" pageWidth="827" pageHeight="1169" background="none" math="0" shadow="0">
      <root>
        <mxCell id="0" />
        <mxCell id="1" parent="0" />
        <mxCell id="0vM7nS2TvoHmR3BYnDFP-1" value="Cinema" style="swimlane;fontStyle=1;align=center;verticalAlign=top;childLayout=stackLayout;horizontal=1;startSize=26;horizontalStack=0;resizeParent=1;resizeParentMax=0;resizeLast=0;collapsible=1;marginBottom=0;whiteSpace=wrap;html=1;" parent="1" vertex="1">
          <mxGeometry x="-28" y="-71" width="160" height="130" as="geometry" />
        </mxCell>
        <mxCell id="0vM7nS2TvoHmR3BYnDFP-2" value="- nome: str&lt;br&gt;- cidade: str" style="text;strokeColor=none;fillColor=none;align=left;verticalAlign=top;spacingLeft=4;spacingRight=4;overflow=hidden;rotatable=0;points=[[0,0.5],[1,0.5]];portConstraint=eastwest;whiteSpace=wrap;html=1;" parent="0vM7nS2TvoHmR3BYnDFP-1" vertex="1">
          <mxGeometry y="26" width="160" height="44" as="geometry" />
        </mxCell>
        <mxCell id="0vM7nS2TvoHmR3BYnDFP-3" value="" style="line;strokeWidth=1;fillColor=none;align=left;verticalAlign=middle;spacingTop=-1;spacingLeft=3;spacingRight=3;rotatable=0;labelPosition=right;points=[];portConstraint=eastwest;strokeColor=inherit;" parent="0vM7nS2TvoHmR3BYnDFP-1" vertex="1">
          <mxGeometry y="70" width="160" height="8" as="geometry" />
        </mxCell>
        <mxCell id="0vM7nS2TvoHmR3BYnDFP-4" value="+ &amp;lt;create&amp;gt; ()&lt;br&gt;+ nome()&lt;br&gt;+ cidade()" style="text;strokeColor=none;fillColor=none;align=left;verticalAlign=top;spacingLeft=4;spacingRight=4;overflow=hidden;rotatable=0;points=[[0,0.5],[1,0.5]];portConstraint=eastwest;whiteSpace=wrap;html=1;" parent="0vM7nS2TvoHmR3BYnDFP-1" vertex="1">
          <mxGeometry y="78" width="160" height="52" as="geometry" />
        </mxCell>
        <mxCell id="0vM7nS2TvoHmR3BYnDFP-5" value="TelaCinema" style="swimlane;fontStyle=1;align=center;verticalAlign=top;childLayout=stackLayout;horizontal=1;startSize=26;horizontalStack=0;resizeParent=1;resizeParentMax=0;resizeLast=0;collapsible=1;marginBottom=0;whiteSpace=wrap;html=1;" parent="1" vertex="1">
          <mxGeometry x="432" y="-50" width="210" height="80" as="geometry" />
        </mxCell>
        <mxCell id="0vM7nS2TvoHmR3BYnDFP-7" value="" style="line;strokeWidth=1;fillColor=none;align=left;verticalAlign=middle;spacingTop=-1;spacingLeft=3;spacingRight=3;rotatable=0;labelPosition=right;points=[];portConstraint=eastwest;strokeColor=inherit;" parent="0vM7nS2TvoHmR3BYnDFP-5" vertex="1">
          <mxGeometry y="26" width="210" height="8" as="geometry" />
        </mxCell>
        <mxCell id="0vM7nS2TvoHmR3BYnDFP-8" value="+run_tela_principal()" style="text;strokeColor=none;fillColor=none;align=left;verticalAlign=top;spacingLeft=4;spacingRight=4;overflow=hidden;rotatable=0;points=[[0,0.5],[1,0.5]];portConstraint=eastwest;whiteSpace=wrap;html=1;" parent="0vM7nS2TvoHmR3BYnDFP-5" vertex="1">
          <mxGeometry y="34" width="210" height="46" as="geometry" />
        </mxCell>
        <mxCell id="0vM7nS2TvoHmR3BYnDFP-9" value="ControladorCinema" style="swimlane;fontStyle=1;align=center;verticalAlign=top;childLayout=stackLayout;horizontal=1;startSize=26;horizontalStack=0;resizeParent=1;resizeParentMax=0;resizeLast=0;collapsible=1;marginBottom=0;whiteSpace=wrap;html=1;" parent="1" vertex="1">
          <mxGeometry x="200" y="-71" width="160" height="130" as="geometry" />
        </mxCell>
        <mxCell id="0vM7nS2TvoHmR3BYnDFP-10" value="- tela: TelaCinema&lt;br&gt;- evento" style="text;strokeColor=none;fillColor=none;align=left;verticalAlign=top;spacingLeft=4;spacingRight=4;overflow=hidden;rotatable=0;points=[[0,0.5],[1,0.5]];portConstraint=eastwest;whiteSpace=wrap;html=1;" parent="0vM7nS2TvoHmR3BYnDFP-9" vertex="1">
          <mxGeometry y="26" width="160" height="34" as="geometry" />
        </mxCell>
        <mxCell id="0vM7nS2TvoHmR3BYnDFP-11" value="" style="line;strokeWidth=1;fillColor=none;align=left;verticalAlign=middle;spacingTop=-1;spacingLeft=3;spacingRight=3;rotatable=0;labelPosition=right;points=[];portConstraint=eastwest;strokeColor=inherit;" parent="0vM7nS2TvoHmR3BYnDFP-9" vertex="1">
          <mxGeometry y="60" width="160" height="8" as="geometry" />
        </mxCell>
        <mxCell id="0vM7nS2TvoHmR3BYnDFP-12" value="+ &amp;lt;create&amp;gt; ()&lt;br&gt;+ gerencia_tela_principal()" style="text;strokeColor=none;fillColor=none;align=left;verticalAlign=top;spacingLeft=4;spacingRight=4;overflow=hidden;rotatable=0;points=[[0,0.5],[1,0.5]];portConstraint=eastwest;whiteSpace=wrap;html=1;" parent="0vM7nS2TvoHmR3BYnDFP-9" vertex="1">
          <mxGeometry y="68" width="160" height="62" as="geometry" />
        </mxCell>
        <mxCell id="0vM7nS2TvoHmR3BYnDFP-13" value="ControladorPrincipal" style="swimlane;fontStyle=1;align=center;verticalAlign=top;childLayout=stackLayout;horizontal=1;startSize=26;horizontalStack=0;resizeParent=1;resizeParentMax=0;resizeLast=0;collapsible=1;marginBottom=0;whiteSpace=wrap;html=1;" parent="1" vertex="1">
          <mxGeometry x="205" y="181" width="240" height="125" as="geometry" />
        </mxCell>
        <mxCell id="0vM7nS2TvoHmR3BYnDFP-14" value="- ctrl_cinema: ControladorCinema&lt;br&gt;- ctrl_filme: ControladorFilme&lt;br&gt;- ctrl_lanchonete: ControladorLanchonete&lt;br&gt;- ctrl_relatorio: ControladorRelatorio" style="text;strokeColor=none;fillColor=none;align=left;verticalAlign=top;spacingLeft=4;spacingRight=4;overflow=hidden;rotatable=0;points=[[0,0.5],[1,0.5]];portConstraint=eastwest;whiteSpace=wrap;html=1;" parent="0vM7nS2TvoHmR3BYnDFP-13" vertex="1">
          <mxGeometry y="26" width="240" height="64" as="geometry" />
        </mxCell>
        <mxCell id="0vM7nS2TvoHmR3BYnDFP-15" value="" style="line;strokeWidth=1;fillColor=none;align=left;verticalAlign=middle;spacingTop=-1;spacingLeft=3;spacingRight=3;rotatable=0;labelPosition=right;points=[];portConstraint=eastwest;strokeColor=inherit;" parent="0vM7nS2TvoHmR3BYnDFP-13" vertex="1">
          <mxGeometry y="90" width="240" height="8" as="geometry" />
        </mxCell>
        <mxCell id="0vM7nS2TvoHmR3BYnDFP-16" value="+ gerencia_sistema()" style="text;strokeColor=none;fillColor=none;align=left;verticalAlign=top;spacingLeft=4;spacingRight=4;overflow=hidden;rotatable=0;points=[[0,0.5],[1,0.5]];portConstraint=eastwest;whiteSpace=wrap;html=1;" parent="0vM7nS2TvoHmR3BYnDFP-13" vertex="1">
          <mxGeometry y="98" width="240" height="27" as="geometry" />
        </mxCell>
        <mxCell id="0vM7nS2TvoHmR3BYnDFP-17" value="ControladorAlimento" style="swimlane;fontStyle=1;align=center;verticalAlign=top;childLayout=stackLayout;horizontal=1;startSize=26;horizontalStack=0;resizeParent=1;resizeParentMax=0;resizeLast=0;collapsible=1;marginBottom=0;whiteSpace=wrap;html=1;" parent="1" vertex="1">
          <mxGeometry x="-72" y="181" width="210" height="146" as="geometry" />
        </mxCell>
        <mxCell id="0vM7nS2TvoHmR3BYnDFP-18" value="- tela: TelaAlimento&lt;br style=&quot;border-color: var(--border-color);&quot;&gt;- daoAlimentos" style="text;strokeColor=none;fillColor=none;align=left;verticalAlign=top;spacingLeft=4;spacingRight=4;overflow=hidden;rotatable=0;points=[[0,0.5],[1,0.5]];portConstraint=eastwest;whiteSpace=wrap;html=1;" parent="0vM7nS2TvoHmR3BYnDFP-17" vertex="1">
          <mxGeometry y="26" width="210" height="44" as="geometry" />
        </mxCell>
        <mxCell id="0vM7nS2TvoHmR3BYnDFP-19" value="" style="line;strokeWidth=1;fillColor=none;align=left;verticalAlign=middle;spacingTop=-1;spacingLeft=3;spacingRight=3;rotatable=0;labelPosition=right;points=[];portConstraint=eastwest;strokeColor=inherit;" parent="0vM7nS2TvoHmR3BYnDFP-17" vertex="1">
          <mxGeometry y="70" width="210" height="8" as="geometry" />
        </mxCell>
        <mxCell id="0vM7nS2TvoHmR3BYnDFP-20" value="+ &amp;lt;create&amp;gt; (dao, tela, controlador_relatorio, label)&lt;br&gt;+ gerencia_sistema()&lt;br&gt;+ inclui_adicional()" style="text;strokeColor=none;fillColor=none;align=left;verticalAlign=top;spacingLeft=4;spacingRight=4;overflow=hidden;rotatable=0;points=[[0,0.5],[1,0.5]];portConstraint=eastwest;whiteSpace=wrap;html=1;" parent="0vM7nS2TvoHmR3BYnDFP-17" vertex="1">
          <mxGeometry y="78" width="210" height="68" as="geometry" />
        </mxCell>
        <mxCell id="0vM7nS2TvoHmR3BYnDFP-29" value="Filme" style="swimlane;fontStyle=1;align=center;verticalAlign=top;childLayout=stackLayout;horizontal=1;startSize=26;horizontalStack=0;resizeParent=1;resizeParentMax=0;resizeLast=0;collapsible=1;marginBottom=0;whiteSpace=wrap;html=1;" parent="1" vertex="1">
          <mxGeometry x="1091" y="367" width="160" height="208" as="geometry" />
        </mxCell>
        <mxCell id="0vM7nS2TvoHmR3BYnDFP-30" value="- nome: str&lt;br&gt;- codigo: int&lt;br&gt;- generos: Genero[]" style="text;strokeColor=none;fillColor=none;align=left;verticalAlign=top;spacingLeft=4;spacingRight=4;overflow=hidden;rotatable=0;points=[[0,0.5],[1,0.5]];portConstraint=eastwest;whiteSpace=wrap;html=1;" parent="0vM7nS2TvoHmR3BYnDFP-29" vertex="1">
          <mxGeometry y="26" width="160" height="54" as="geometry" />
        </mxCell>
        <mxCell id="0vM7nS2TvoHmR3BYnDFP-31" value="" style="line;strokeWidth=1;fillColor=none;align=left;verticalAlign=middle;spacingTop=-1;spacingLeft=3;spacingRight=3;rotatable=0;labelPosition=right;points=[];portConstraint=eastwest;strokeColor=inherit;" parent="0vM7nS2TvoHmR3BYnDFP-29" vertex="1">
          <mxGeometry y="80" width="160" height="8" as="geometry" />
        </mxCell>
        <mxCell id="0vM7nS2TvoHmR3BYnDFP-32" value="+ &amp;lt;create&amp;gt; (nome, codigo)&lt;br&gt;+ nome()&lt;br&gt;+ nome(novo_nome)&lt;br&gt;+ codigo()&lt;br&gt;+ generos()&lt;br&gt;+ adiciona_genero()" style="text;strokeColor=none;fillColor=none;align=left;verticalAlign=top;spacingLeft=4;spacingRight=4;overflow=hidden;rotatable=0;points=[[0,0.5],[1,0.5]];portConstraint=eastwest;whiteSpace=wrap;html=1;" parent="0vM7nS2TvoHmR3BYnDFP-29" vertex="1">
          <mxGeometry y="88" width="160" height="120" as="geometry" />
        </mxCell>
        <mxCell id="0vM7nS2TvoHmR3BYnDFP-37" value="Alimento" style="swimlane;fontStyle=1;align=center;verticalAlign=top;childLayout=stackLayout;horizontal=1;startSize=26;horizontalStack=0;resizeParent=1;resizeParentMax=0;resizeLast=0;collapsible=1;marginBottom=0;whiteSpace=wrap;html=1;" parent="1" vertex="1">
          <mxGeometry x="-284" y="338" width="190" height="208" as="geometry" />
        </mxCell>
        <mxCell id="0vM7nS2TvoHmR3BYnDFP-38" value="- nome: str&lt;br&gt;- codigo: int&lt;br&gt;- preco: float&lt;br&gt;- adicionais: adicional[]" style="text;strokeColor=none;fillColor=none;align=left;verticalAlign=top;spacingLeft=4;spacingRight=4;overflow=hidden;rotatable=0;points=[[0,0.5],[1,0.5]];portConstraint=eastwest;whiteSpace=wrap;html=1;" parent="0vM7nS2TvoHmR3BYnDFP-37" vertex="1">
          <mxGeometry y="26" width="190" height="78" as="geometry" />
        </mxCell>
        <mxCell id="0vM7nS2TvoHmR3BYnDFP-39" value="" style="line;strokeWidth=1;fillColor=none;align=left;verticalAlign=middle;spacingTop=-1;spacingLeft=3;spacingRight=3;rotatable=0;labelPosition=right;points=[];portConstraint=eastwest;strokeColor=inherit;" parent="0vM7nS2TvoHmR3BYnDFP-37" vertex="1">
          <mxGeometry y="104" width="190" height="8" as="geometry" />
        </mxCell>
        <mxCell id="0vM7nS2TvoHmR3BYnDFP-40" value="+ &amp;lt;create&amp;gt; (nome, codigo, preco)&lt;br&gt;+ nome()&lt;br&gt;+ codigo()&lt;br&gt;+ preco ()&lt;br&gt;+ adicionais ()&lt;br&gt;+ adiciona_adicional()" style="text;strokeColor=none;fillColor=none;align=left;verticalAlign=top;spacingLeft=4;spacingRight=4;overflow=hidden;rotatable=0;points=[[0,0.5],[1,0.5]];portConstraint=eastwest;whiteSpace=wrap;html=1;" parent="0vM7nS2TvoHmR3BYnDFP-37" vertex="1">
          <mxGeometry y="112" width="190" height="96" as="geometry" />
        </mxCell>
        <mxCell id="0vM7nS2TvoHmR3BYnDFP-45" value="ControladorFilme" style="swimlane;fontStyle=1;align=center;verticalAlign=top;childLayout=stackLayout;horizontal=1;startSize=26;horizontalStack=0;resizeParent=1;resizeParentMax=0;resizeLast=0;collapsible=1;marginBottom=0;whiteSpace=wrap;html=1;" parent="1" vertex="1">
          <mxGeometry x="540" y="448" width="210" height="124" as="geometry" />
        </mxCell>
        <mxCell id="0vM7nS2TvoHmR3BYnDFP-46" value="- controlador_genero&amp;nbsp;" style="text;strokeColor=none;fillColor=none;align=left;verticalAlign=top;spacingLeft=4;spacingRight=4;overflow=hidden;rotatable=0;points=[[0,0.5],[1,0.5]];portConstraint=eastwest;whiteSpace=wrap;html=1;" parent="0vM7nS2TvoHmR3BYnDFP-45" vertex="1">
          <mxGeometry y="26" width="210" height="28" as="geometry" />
        </mxCell>
        <mxCell id="0vM7nS2TvoHmR3BYnDFP-47" value="" style="line;strokeWidth=1;fillColor=none;align=left;verticalAlign=middle;spacingTop=-1;spacingLeft=3;spacingRight=3;rotatable=0;labelPosition=right;points=[];portConstraint=eastwest;strokeColor=inherit;" parent="0vM7nS2TvoHmR3BYnDFP-45" vertex="1">
          <mxGeometry y="54" width="210" height="8" as="geometry" />
        </mxCell>
        <mxCell id="0vM7nS2TvoHmR3BYnDFP-48" value="+ gerencia_sistema()&lt;br&gt;+ adiciona_genero()&lt;br&gt;+ inclui_genero()" style="text;strokeColor=none;fillColor=none;align=left;verticalAlign=top;spacingLeft=4;spacingRight=4;overflow=hidden;rotatable=0;points=[[0,0.5],[1,0.5]];portConstraint=eastwest;whiteSpace=wrap;html=1;" parent="0vM7nS2TvoHmR3BYnDFP-45" vertex="1">
          <mxGeometry y="62" width="210" height="62" as="geometry" />
        </mxCell>
        <mxCell id="0vM7nS2TvoHmR3BYnDFP-49" value="Adicional" style="swimlane;fontStyle=1;align=center;verticalAlign=top;childLayout=stackLayout;horizontal=1;startSize=26;horizontalStack=0;resizeParent=1;resizeParentMax=0;resizeLast=0;collapsible=1;marginBottom=0;whiteSpace=wrap;html=1;" parent="1" vertex="1">
          <mxGeometry x="-284" y="679" width="190" height="100" as="geometry" />
        </mxCell>
        <mxCell id="0vM7nS2TvoHmR3BYnDFP-50" value="- nome: str" style="text;strokeColor=none;fillColor=none;align=left;verticalAlign=top;spacingLeft=4;spacingRight=4;overflow=hidden;rotatable=0;points=[[0,0.5],[1,0.5]];portConstraint=eastwest;whiteSpace=wrap;html=1;" parent="0vM7nS2TvoHmR3BYnDFP-49" vertex="1">
          <mxGeometry y="26" width="190" height="26" as="geometry" />
        </mxCell>
        <mxCell id="0vM7nS2TvoHmR3BYnDFP-51" value="" style="line;strokeWidth=1;fillColor=none;align=left;verticalAlign=middle;spacingTop=-1;spacingLeft=3;spacingRight=3;rotatable=0;labelPosition=right;points=[];portConstraint=eastwest;strokeColor=inherit;" parent="0vM7nS2TvoHmR3BYnDFP-49" vertex="1">
          <mxGeometry y="52" width="190" height="8" as="geometry" />
        </mxCell>
        <mxCell id="0vM7nS2TvoHmR3BYnDFP-52" value="+ &amp;lt;create&amp;gt; (nome)&lt;br&gt;+ nome()&amp;nbsp;" style="text;strokeColor=none;fillColor=none;align=left;verticalAlign=top;spacingLeft=4;spacingRight=4;overflow=hidden;rotatable=0;points=[[0,0.5],[1,0.5]];portConstraint=eastwest;whiteSpace=wrap;html=1;" parent="0vM7nS2TvoHmR3BYnDFP-49" vertex="1">
          <mxGeometry y="60" width="190" height="40" as="geometry" />
        </mxCell>
        <mxCell id="0vM7nS2TvoHmR3BYnDFP-53" value="Genero" style="swimlane;fontStyle=1;align=center;verticalAlign=top;childLayout=stackLayout;horizontal=1;startSize=26;horizontalStack=0;resizeParent=1;resizeParentMax=0;resizeLast=0;collapsible=1;marginBottom=0;whiteSpace=wrap;html=1;" parent="1" vertex="1">
          <mxGeometry x="1171" y="643" width="160" height="140" as="geometry" />
        </mxCell>
        <mxCell id="0vM7nS2TvoHmR3BYnDFP-54" value="- nome: str&lt;br&gt;- codigo: int" style="text;strokeColor=none;fillColor=none;align=left;verticalAlign=top;spacingLeft=4;spacingRight=4;overflow=hidden;rotatable=0;points=[[0,0.5],[1,0.5]];portConstraint=eastwest;whiteSpace=wrap;html=1;" parent="0vM7nS2TvoHmR3BYnDFP-53" vertex="1">
          <mxGeometry y="26" width="160" height="44" as="geometry" />
        </mxCell>
        <mxCell id="0vM7nS2TvoHmR3BYnDFP-55" value="" style="line;strokeWidth=1;fillColor=none;align=left;verticalAlign=middle;spacingTop=-1;spacingLeft=3;spacingRight=3;rotatable=0;labelPosition=right;points=[];portConstraint=eastwest;strokeColor=inherit;" parent="0vM7nS2TvoHmR3BYnDFP-53" vertex="1">
          <mxGeometry y="70" width="160" height="8" as="geometry" />
        </mxCell>
        <mxCell id="0vM7nS2TvoHmR3BYnDFP-56" value="+ &amp;lt;create&amp;gt; (nome, codigo)&lt;br&gt;+ nome()&lt;br&gt;+ codigo()" style="text;strokeColor=none;fillColor=none;align=left;verticalAlign=top;spacingLeft=4;spacingRight=4;overflow=hidden;rotatable=0;points=[[0,0.5],[1,0.5]];portConstraint=eastwest;whiteSpace=wrap;html=1;" parent="0vM7nS2TvoHmR3BYnDFP-53" vertex="1">
          <mxGeometry y="78" width="160" height="62" as="geometry" />
        </mxCell>
        <mxCell id="0vM7nS2TvoHmR3BYnDFP-57" value="AbstractTelaItens" style="swimlane;fontStyle=1;align=center;verticalAlign=top;childLayout=stackLayout;horizontal=1;startSize=26;horizontalStack=0;resizeParent=1;resizeParentMax=0;resizeLast=0;collapsible=1;marginBottom=0;whiteSpace=wrap;html=1;" parent="1" vertex="1">
          <mxGeometry x="215" y="564" width="267" height="262" as="geometry" />
        </mxCell>
        <mxCell id="0vM7nS2TvoHmR3BYnDFP-59" value="" style="line;strokeWidth=1;fillColor=none;align=left;verticalAlign=middle;spacingTop=-1;spacingLeft=3;spacingRight=3;rotatable=0;labelPosition=right;points=[];portConstraint=eastwest;strokeColor=inherit;" parent="0vM7nS2TvoHmR3BYnDFP-57" vertex="1">
          <mxGeometry y="26" width="267" height="8" as="geometry" />
        </mxCell>
        <mxCell id="0vM7nS2TvoHmR3BYnDFP-60" value="+ run_tela_principal()&lt;br&gt;+ testa_se_input_vazio( input, massage)&lt;br&gt;+ testa_se_input_negativo( input, massage)&lt;br style=&quot;border-color: var(--border-color);&quot;&gt;+ retira_espaco_input(input)&lt;br&gt;+ teste_se_input_no_banco( input, banco, message)&lt;br&gt;+ run_tela_adicionar_item(label)&lt;br&gt;+ run_tela_remover_item(itens, label, codigos)&lt;br&gt;+ run_tela_edita_itens(itens_existentes, label, codigos_existentes)&lt;br&gt;+ run_tela_vender_item(itens, label, codigos_banco)&lt;br&gt;+ popup_nao_funcionou(motivo)&lt;br style=&quot;border-color: var(--border-color);&quot;&gt;+ popup_funcionou()&lt;br style=&quot;border-color: var(--border-color);&quot;&gt;+ popup_fecha_tela()" style="text;strokeColor=none;fillColor=none;align=left;verticalAlign=top;spacingLeft=4;spacingRight=4;overflow=hidden;rotatable=0;points=[[0,0.5],[1,0.5]];portConstraint=eastwest;whiteSpace=wrap;html=1;" parent="0vM7nS2TvoHmR3BYnDFP-57" vertex="1">
          <mxGeometry y="34" width="267" height="228" as="geometry" />
        </mxCell>
        <mxCell id="0vM7nS2TvoHmR3BYnDFP-61" value="ControladorGenero" style="swimlane;fontStyle=1;align=center;verticalAlign=top;childLayout=stackLayout;horizontal=1;startSize=26;horizontalStack=0;resizeParent=1;resizeParentMax=0;resizeLast=0;collapsible=1;marginBottom=0;whiteSpace=wrap;html=1;" parent="1" vertex="1">
          <mxGeometry x="774" y="603" width="160" height="130" as="geometry" />
        </mxCell>
        <mxCell id="0vM7nS2TvoHmR3BYnDFP-62" value="- tela: TelaGenero&lt;br&gt;- dao_generos" style="text;strokeColor=none;fillColor=none;align=left;verticalAlign=top;spacingLeft=4;spacingRight=4;overflow=hidden;rotatable=0;points=[[0,0.5],[1,0.5]];portConstraint=eastwest;whiteSpace=wrap;html=1;" parent="0vM7nS2TvoHmR3BYnDFP-61" vertex="1">
          <mxGeometry y="26" width="160" height="34" as="geometry" />
        </mxCell>
        <mxCell id="0vM7nS2TvoHmR3BYnDFP-63" value="" style="line;strokeWidth=1;fillColor=none;align=left;verticalAlign=middle;spacingTop=-1;spacingLeft=3;spacingRight=3;rotatable=0;labelPosition=right;points=[];portConstraint=eastwest;strokeColor=inherit;" parent="0vM7nS2TvoHmR3BYnDFP-61" vertex="1">
          <mxGeometry y="60" width="160" height="8" as="geometry" />
        </mxCell>
        <mxCell id="0vM7nS2TvoHmR3BYnDFP-64" value="+ generos()&lt;br&gt;+ get(key)&lt;br&gt;+ adiciona_genero()" style="text;strokeColor=none;fillColor=none;align=left;verticalAlign=top;spacingLeft=4;spacingRight=4;overflow=hidden;rotatable=0;points=[[0,0.5],[1,0.5]];portConstraint=eastwest;whiteSpace=wrap;html=1;" parent="0vM7nS2TvoHmR3BYnDFP-61" vertex="1">
          <mxGeometry y="68" width="160" height="62" as="geometry" />
        </mxCell>
        <mxCell id="0vM7nS2TvoHmR3BYnDFP-65" value="TelaGenero" style="swimlane;fontStyle=1;align=center;verticalAlign=top;childLayout=stackLayout;horizontal=1;startSize=26;horizontalStack=0;resizeParent=1;resizeParentMax=0;resizeLast=0;collapsible=1;marginBottom=0;whiteSpace=wrap;html=1;" parent="1" vertex="1">
          <mxGeometry x="764" y="789" width="198" height="149" as="geometry" />
        </mxCell>
        <mxCell id="0vM7nS2TvoHmR3BYnDFP-67" value="" style="line;strokeWidth=1;fillColor=none;align=left;verticalAlign=middle;spacingTop=-1;spacingLeft=3;spacingRight=3;rotatable=0;labelPosition=right;points=[];portConstraint=eastwest;strokeColor=inherit;" parent="0vM7nS2TvoHmR3BYnDFP-65" vertex="1">
          <mxGeometry y="26" width="198" height="8" as="geometry" />
        </mxCell>
        <mxCell id="0vM7nS2TvoHmR3BYnDFP-68" value="+ testa_se_input_vazio( input, massage)&lt;br&gt;+ retira_espaco_input(input)&lt;br&gt;+run_tela_genero( generos)&lt;br&gt;+ popup_nao_funcionou(motivo)&lt;br&gt;+ popup_funcionou()&lt;br&gt;+ popup_fecha_tela()" style="text;strokeColor=none;fillColor=none;align=left;verticalAlign=top;spacingLeft=4;spacingRight=4;overflow=hidden;rotatable=0;points=[[0,0.5],[1,0.5]];portConstraint=eastwest;whiteSpace=wrap;html=1;" parent="0vM7nS2TvoHmR3BYnDFP-65" vertex="1">
          <mxGeometry y="34" width="198" height="115" as="geometry" />
        </mxCell>
        <mxCell id="0vM7nS2TvoHmR3BYnDFP-70" value="TelaFilme" style="swimlane;fontStyle=1;align=center;verticalAlign=top;childLayout=stackLayout;horizontal=1;startSize=26;horizontalStack=0;resizeParent=1;resizeParentMax=0;resizeLast=0;collapsible=1;marginBottom=0;whiteSpace=wrap;html=1;" parent="1" vertex="1">
          <mxGeometry x="565" y="595" width="160" height="128" as="geometry" />
        </mxCell>
        <mxCell id="0vM7nS2TvoHmR3BYnDFP-72" value="" style="line;strokeWidth=1;fillColor=none;align=left;verticalAlign=middle;spacingTop=-1;spacingLeft=3;spacingRight=3;rotatable=0;labelPosition=right;points=[];portConstraint=eastwest;strokeColor=inherit;" parent="0vM7nS2TvoHmR3BYnDFP-70" vertex="1">
          <mxGeometry y="26" width="160" height="8" as="geometry" />
        </mxCell>
        <mxCell id="0vM7nS2TvoHmR3BYnDFP-73" value="+ run_tela_principal()&lt;br&gt;+ run_tela_inclui_genero( filmes_existentes, generos_existentes, codigos_filme, codigos_generos)" style="text;strokeColor=none;fillColor=none;align=left;verticalAlign=top;spacingLeft=4;spacingRight=4;overflow=hidden;rotatable=0;points=[[0,0.5],[1,0.5]];portConstraint=eastwest;whiteSpace=wrap;html=1;" parent="0vM7nS2TvoHmR3BYnDFP-70" vertex="1">
          <mxGeometry y="34" width="160" height="94" as="geometry" />
        </mxCell>
        <mxCell id="0vM7nS2TvoHmR3BYnDFP-76" value="" style="endArrow=open;endFill=1;endSize=12;html=1;rounded=0;" parent="1" source="0vM7nS2TvoHmR3BYnDFP-13" target="0vM7nS2TvoHmR3BYnDFP-45" edge="1">
          <mxGeometry width="160" relative="1" as="geometry">
            <mxPoint x="280" y="380" as="sourcePoint" />
            <mxPoint x="440" y="380" as="targetPoint" />
          </mxGeometry>
        </mxCell>
        <mxCell id="0vM7nS2TvoHmR3BYnDFP-77" value="" style="endArrow=open;endFill=1;endSize=12;html=1;rounded=0;" parent="1" source="0vM7nS2TvoHmR3BYnDFP-13" target="0vM7nS2TvoHmR3BYnDFP-9" edge="1">
          <mxGeometry width="160" relative="1" as="geometry">
            <mxPoint x="280" y="380" as="sourcePoint" />
            <mxPoint x="440" y="380" as="targetPoint" />
          </mxGeometry>
        </mxCell>
        <mxCell id="0vM7nS2TvoHmR3BYnDFP-78" value="" style="endArrow=open;endFill=1;endSize=12;html=1;rounded=0;" parent="1" source="0vM7nS2TvoHmR3BYnDFP-9" target="0vM7nS2TvoHmR3BYnDFP-5" edge="1">
          <mxGeometry width="160" relative="1" as="geometry">
            <mxPoint x="185" y="189" as="sourcePoint" />
            <mxPoint x="345" y="189" as="targetPoint" />
          </mxGeometry>
        </mxCell>
        <mxCell id="0vM7nS2TvoHmR3BYnDFP-79" value="" style="endArrow=open;endFill=1;endSize=12;html=1;rounded=0;" parent="1" source="0vM7nS2TvoHmR3BYnDFP-9" target="0vM7nS2TvoHmR3BYnDFP-1" edge="1">
          <mxGeometry width="160" relative="1" as="geometry">
            <mxPoint x="185" y="189" as="sourcePoint" />
            <mxPoint x="345" y="189" as="targetPoint" />
          </mxGeometry>
        </mxCell>
        <mxCell id="0vM7nS2TvoHmR3BYnDFP-80" value="" style="endArrow=open;endFill=1;endSize=12;html=1;rounded=0;" parent="1" source="0vM7nS2TvoHmR3BYnDFP-13" target="0vM7nS2TvoHmR3BYnDFP-17" edge="1">
          <mxGeometry width="160" relative="1" as="geometry">
            <mxPoint x="390" y="430" as="sourcePoint" />
            <mxPoint x="550" y="430" as="targetPoint" />
          </mxGeometry>
        </mxCell>
        <mxCell id="0vM7nS2TvoHmR3BYnDFP-81" value="" style="endArrow=open;endFill=1;endSize=12;html=1;rounded=0;" parent="1" source="0vM7nS2TvoHmR3BYnDFP-45" target="TbL9d9kvdTnYUlT3MyRq-51" edge="1">
          <mxGeometry width="160" relative="1" as="geometry">
            <mxPoint x="560" y="570" as="sourcePoint" />
            <mxPoint x="720" y="570" as="targetPoint" />
          </mxGeometry>
        </mxCell>
        <mxCell id="0vM7nS2TvoHmR3BYnDFP-82" value="" style="endArrow=open;endFill=1;endSize=12;html=1;rounded=0;" parent="1" source="0vM7nS2TvoHmR3BYnDFP-45" target="0vM7nS2TvoHmR3BYnDFP-70" edge="1">
          <mxGeometry width="160" relative="1" as="geometry">
            <mxPoint x="560" y="570" as="sourcePoint" />
            <mxPoint x="720" y="570" as="targetPoint" />
          </mxGeometry>
        </mxCell>
        <mxCell id="0vM7nS2TvoHmR3BYnDFP-83" value="" style="endArrow=open;endFill=1;endSize=12;html=1;rounded=0;" parent="1" source="0vM7nS2TvoHmR3BYnDFP-45" target="0vM7nS2TvoHmR3BYnDFP-61" edge="1">
          <mxGeometry width="160" relative="1" as="geometry">
            <mxPoint x="560" y="570" as="sourcePoint" />
            <mxPoint x="720" y="570" as="targetPoint" />
          </mxGeometry>
        </mxCell>
        <mxCell id="0vM7nS2TvoHmR3BYnDFP-84" value="" style="endArrow=open;endFill=1;endSize=12;html=1;rounded=0;" parent="1" source="0vM7nS2TvoHmR3BYnDFP-61" target="TbL9d9kvdTnYUlT3MyRq-41" edge="1">
          <mxGeometry width="160" relative="1" as="geometry">
            <mxPoint x="760" y="690" as="sourcePoint" />
            <mxPoint x="920" y="690" as="targetPoint" />
          </mxGeometry>
        </mxCell>
        <mxCell id="0vM7nS2TvoHmR3BYnDFP-85" value="" style="endArrow=open;endFill=1;endSize=12;html=1;rounded=0;" parent="1" source="0vM7nS2TvoHmR3BYnDFP-61" target="0vM7nS2TvoHmR3BYnDFP-65" edge="1">
          <mxGeometry width="160" relative="1" as="geometry">
            <mxPoint x="728" y="688" as="sourcePoint" />
            <mxPoint x="888" y="688" as="targetPoint" />
          </mxGeometry>
        </mxCell>
        <mxCell id="0vM7nS2TvoHmR3BYnDFP-86" value="" style="endArrow=open;html=1;endSize=12;startArrow=diamondThin;startSize=14;startFill=0;edgeStyle=orthogonalEdgeStyle;align=left;verticalAlign=bottom;rounded=0;" parent="1" source="0vM7nS2TvoHmR3BYnDFP-29" target="0vM7nS2TvoHmR3BYnDFP-53" edge="1">
          <mxGeometry x="-1" y="3" relative="1" as="geometry">
            <mxPoint x="760" y="690" as="sourcePoint" />
            <mxPoint x="920" y="690" as="targetPoint" />
          </mxGeometry>
        </mxCell>
        <mxCell id="0vM7nS2TvoHmR3BYnDFP-92" value="*" style="edgeLabel;html=1;align=center;verticalAlign=middle;resizable=0;points=[];" parent="0vM7nS2TvoHmR3BYnDFP-86" vertex="1" connectable="0">
          <mxGeometry x="0.9251" y="1" relative="1" as="geometry">
            <mxPoint x="9" y="-8" as="offset" />
          </mxGeometry>
        </mxCell>
        <mxCell id="0vM7nS2TvoHmR3BYnDFP-87" value="" style="endArrow=open;html=1;endSize=12;startArrow=diamondThin;startSize=14;startFill=1;edgeStyle=orthogonalEdgeStyle;align=left;verticalAlign=bottom;rounded=0;" parent="1" source="0vM7nS2TvoHmR3BYnDFP-37" target="0vM7nS2TvoHmR3BYnDFP-49" edge="1">
          <mxGeometry x="-1" y="3" relative="1" as="geometry">
            <mxPoint x="-54" y="569" as="sourcePoint" />
            <mxPoint x="106" y="569" as="targetPoint" />
          </mxGeometry>
        </mxCell>
        <mxCell id="0vM7nS2TvoHmR3BYnDFP-91" value="*" style="edgeLabel;html=1;align=center;verticalAlign=middle;resizable=0;points=[];" parent="0vM7nS2TvoHmR3BYnDFP-87" vertex="1" connectable="0">
          <mxGeometry x="0.8139" y="2" relative="1" as="geometry">
            <mxPoint x="3" y="-9" as="offset" />
          </mxGeometry>
        </mxCell>
        <mxCell id="0vM7nS2TvoHmR3BYnDFP-88" value="" style="endArrow=open;endFill=1;endSize=12;html=1;rounded=0;" parent="1" source="0vM7nS2TvoHmR3BYnDFP-17" target="TbL9d9kvdTnYUlT3MyRq-45" edge="1">
          <mxGeometry width="160" relative="1" as="geometry">
            <mxPoint x="-152" y="337" as="sourcePoint" />
            <mxPoint x="-145" y="146" as="targetPoint" />
          </mxGeometry>
        </mxCell>
        <mxCell id="0vM7nS2TvoHmR3BYnDFP-89" value="" style="endArrow=open;endFill=1;endSize=12;html=1;rounded=0;" parent="1" source="0vM7nS2TvoHmR3BYnDFP-17" target="2" edge="1">
          <mxGeometry width="160" relative="1" as="geometry">
            <mxPoint x="-152" y="337" as="sourcePoint" />
            <mxPoint x="33" y="420" as="targetPoint" />
          </mxGeometry>
        </mxCell>
        <mxCell id="0vM7nS2TvoHmR3BYnDFP-104" value="" style="endArrow=block;endSize=16;endFill=0;html=1;rounded=0;" parent="1" source="0vM7nS2TvoHmR3BYnDFP-45" target="TbL9d9kvdTnYUlT3MyRq-68" edge="1">
          <mxGeometry width="160" relative="1" as="geometry">
            <mxPoint x="340" y="630" as="sourcePoint" />
            <mxPoint x="410" y="471.3000000000002" as="targetPoint" />
          </mxGeometry>
        </mxCell>
        <mxCell id="0vM7nS2TvoHmR3BYnDFP-105" value="" style="endArrow=block;endSize=16;endFill=0;html=1;rounded=0;" parent="1" source="0vM7nS2TvoHmR3BYnDFP-17" target="TbL9d9kvdTnYUlT3MyRq-68" edge="1">
          <mxGeometry width="160" relative="1" as="geometry">
            <mxPoint x="340" y="630" as="sourcePoint" />
            <mxPoint x="230" y="389.56620209059247" as="targetPoint" />
          </mxGeometry>
        </mxCell>
        <mxCell id="0vM7nS2TvoHmR3BYnDFP-106" value="" style="endArrow=block;endSize=16;endFill=0;html=1;rounded=0;" parent="1" source="0vM7nS2TvoHmR3BYnDFP-70" target="0vM7nS2TvoHmR3BYnDFP-57" edge="1">
          <mxGeometry width="160" relative="1" as="geometry">
            <mxPoint x="340" y="630" as="sourcePoint" />
            <mxPoint x="500" y="630" as="targetPoint" />
          </mxGeometry>
        </mxCell>
        <mxCell id="0vM7nS2TvoHmR3BYnDFP-107" value="" style="endArrow=block;endSize=16;endFill=0;html=1;rounded=0;" parent="1" source="2" target="0vM7nS2TvoHmR3BYnDFP-57" edge="1">
          <mxGeometry width="160" relative="1" as="geometry">
            <mxPoint x="225" y="700" as="sourcePoint" />
            <mxPoint x="500" y="630" as="targetPoint" />
          </mxGeometry>
        </mxCell>
        <mxCell id="-zZR3hwUNW0yP9_59fh9-1" value="ControladorRelatorio" style="swimlane;fontStyle=1;align=center;verticalAlign=top;childLayout=stackLayout;horizontal=1;startSize=26;horizontalStack=0;resizeParent=1;resizeParentMax=0;resizeLast=0;collapsible=1;marginBottom=0;whiteSpace=wrap;html=1;" parent="1" vertex="1">
          <mxGeometry x="520" y="254" width="230" height="110" as="geometry" />
        </mxCell>
        <mxCell id="-zZR3hwUNW0yP9_59fh9-2" value="- tela: TelaRelatorio&lt;br&gt;- daoRelatorio" style="text;strokeColor=none;fillColor=none;align=left;verticalAlign=top;spacingLeft=4;spacingRight=4;overflow=hidden;rotatable=0;points=[[0,0.5],[1,0.5]];portConstraint=eastwest;whiteSpace=wrap;html=1;" parent="-zZR3hwUNW0yP9_59fh9-1" vertex="1">
          <mxGeometry y="26" width="230" height="34" as="geometry" />
        </mxCell>
        <mxCell id="-zZR3hwUNW0yP9_59fh9-3" value="" style="line;strokeWidth=1;fillColor=none;align=left;verticalAlign=middle;spacingTop=-1;spacingLeft=3;spacingRight=3;rotatable=0;labelPosition=right;points=[];portConstraint=eastwest;strokeColor=inherit;" parent="-zZR3hwUNW0yP9_59fh9-1" vertex="1">
          <mxGeometry y="60" width="230" height="8" as="geometry" />
        </mxCell>
        <mxCell id="-zZR3hwUNW0yP9_59fh9-4" value="+ gera_relatorio()&lt;br&gt;+ adiciona_relatorio(obj, qtd)" style="text;strokeColor=none;fillColor=none;align=left;verticalAlign=top;spacingLeft=4;spacingRight=4;overflow=hidden;rotatable=0;points=[[0,0.5],[1,0.5]];portConstraint=eastwest;whiteSpace=wrap;html=1;" parent="-zZR3hwUNW0yP9_59fh9-1" vertex="1">
          <mxGeometry y="68" width="230" height="42" as="geometry" />
        </mxCell>
        <mxCell id="-zZR3hwUNW0yP9_59fh9-5" value="Relatorio" style="swimlane;fontStyle=1;align=center;verticalAlign=top;childLayout=stackLayout;horizontal=1;startSize=26;horizontalStack=0;resizeParent=1;resizeParentMax=0;resizeLast=0;collapsible=1;marginBottom=0;whiteSpace=wrap;html=1;" parent="1" vertex="1">
          <mxGeometry x="702" y="-71" width="240" height="160" as="geometry" />
        </mxCell>
        <mxCell id="-zZR3hwUNW0yP9_59fh9-6" value="- codigo: int&lt;br&gt;- nome: str&lt;br&gt;- quantidade: int" style="text;strokeColor=none;fillColor=none;align=left;verticalAlign=top;spacingLeft=4;spacingRight=4;overflow=hidden;rotatable=0;points=[[0,0.5],[1,0.5]];portConstraint=eastwest;whiteSpace=wrap;html=1;" parent="-zZR3hwUNW0yP9_59fh9-5" vertex="1">
          <mxGeometry y="26" width="240" height="54" as="geometry" />
        </mxCell>
        <mxCell id="-zZR3hwUNW0yP9_59fh9-7" value="" style="line;strokeWidth=1;fillColor=none;align=left;verticalAlign=middle;spacingTop=-1;spacingLeft=3;spacingRight=3;rotatable=0;labelPosition=right;points=[];portConstraint=eastwest;strokeColor=inherit;" parent="-zZR3hwUNW0yP9_59fh9-5" vertex="1">
          <mxGeometry y="80" width="240" height="8" as="geometry" />
        </mxCell>
        <mxCell id="-zZR3hwUNW0yP9_59fh9-8" value="+ &amp;lt;create&amp;gt; (codigo, nome, quantidade)&lt;br&gt;+ codigo()&lt;br&gt;+ nome()&lt;br&gt;+ quantidade()" style="text;strokeColor=none;fillColor=none;align=left;verticalAlign=top;spacingLeft=4;spacingRight=4;overflow=hidden;rotatable=0;points=[[0,0.5],[1,0.5]];portConstraint=eastwest;whiteSpace=wrap;html=1;" parent="-zZR3hwUNW0yP9_59fh9-5" vertex="1">
          <mxGeometry y="88" width="240" height="72" as="geometry" />
        </mxCell>
        <mxCell id="-zZR3hwUNW0yP9_59fh9-9" value="TelaRelatorio" style="swimlane;fontStyle=1;align=center;verticalAlign=top;childLayout=stackLayout;horizontal=1;startSize=26;horizontalStack=0;resizeParent=1;resizeParentMax=0;resizeLast=0;collapsible=1;marginBottom=0;whiteSpace=wrap;html=1;" parent="1" vertex="1">
          <mxGeometry x="784" y="254" width="182" height="108" as="geometry" />
        </mxCell>
        <mxCell id="-zZR3hwUNW0yP9_59fh9-11" value="" style="line;strokeWidth=1;fillColor=none;align=left;verticalAlign=middle;spacingTop=-1;spacingLeft=3;spacingRight=3;rotatable=0;labelPosition=right;points=[];portConstraint=eastwest;strokeColor=inherit;" parent="-zZR3hwUNW0yP9_59fh9-9" vertex="1">
          <mxGeometry y="26" width="182" height="8" as="geometry" />
        </mxCell>
        <mxCell id="-zZR3hwUNW0yP9_59fh9-12" value="+run_tela_gera_relatorio(&lt;br&gt;relatorios_existentes, total_vendas)&lt;br&gt;+popup_nao_funcionou(motivo)" style="text;strokeColor=none;fillColor=none;align=left;verticalAlign=top;spacingLeft=4;spacingRight=4;overflow=hidden;rotatable=0;points=[[0,0.5],[1,0.5]];portConstraint=eastwest;whiteSpace=wrap;html=1;" parent="-zZR3hwUNW0yP9_59fh9-9" vertex="1">
          <mxGeometry y="34" width="182" height="74" as="geometry" />
        </mxCell>
        <mxCell id="-zZR3hwUNW0yP9_59fh9-13" value="" style="endArrow=open;endFill=1;endSize=12;html=1;rounded=0;" parent="1" source="0vM7nS2TvoHmR3BYnDFP-13" target="-zZR3hwUNW0yP9_59fh9-1" edge="1">
          <mxGeometry width="160" relative="1" as="geometry">
            <mxPoint x="520" y="490" as="sourcePoint" />
            <mxPoint x="680" y="490" as="targetPoint" />
          </mxGeometry>
        </mxCell>
        <mxCell id="-zZR3hwUNW0yP9_59fh9-14" value="" style="endArrow=open;endFill=1;endSize=12;html=1;rounded=0;" parent="1" source="-zZR3hwUNW0yP9_59fh9-1" target="TbL9d9kvdTnYUlT3MyRq-48" edge="1">
          <mxGeometry width="160" relative="1" as="geometry">
            <mxPoint x="520" y="490" as="sourcePoint" />
            <mxPoint x="680" y="490" as="targetPoint" />
          </mxGeometry>
        </mxCell>
        <mxCell id="-zZR3hwUNW0yP9_59fh9-15" value="" style="endArrow=open;endFill=1;endSize=12;html=1;rounded=0;" parent="1" source="-zZR3hwUNW0yP9_59fh9-1" target="-zZR3hwUNW0yP9_59fh9-9" edge="1">
          <mxGeometry width="160" relative="1" as="geometry">
            <mxPoint x="520" y="490" as="sourcePoint" />
            <mxPoint x="680" y="490" as="targetPoint" />
          </mxGeometry>
        </mxCell>
        <mxCell id="2" value="TelaAlimento" style="swimlane;fontStyle=1;align=center;verticalAlign=top;childLayout=stackLayout;horizontal=1;startSize=26;horizontalStack=0;resizeParent=1;resizeParentMax=0;resizeLast=0;collapsible=1;marginBottom=0;" parent="1" vertex="1">
          <mxGeometry x="-47" y="389" width="160" height="110" as="geometry" />
        </mxCell>
        <mxCell id="4" value="" style="line;strokeWidth=1;fillColor=none;align=left;verticalAlign=middle;spacingTop=-1;spacingLeft=3;spacingRight=3;rotatable=0;labelPosition=right;points=[];portConstraint=eastwest;strokeColor=inherit;" parent="2" vertex="1">
          <mxGeometry y="26" width="160" height="8" as="geometry" />
        </mxCell>
        <mxCell id="5" value="+ run_tela_principal()&#xa;+ run_tela_inclui_adicional(&#xa;alimentos_existentes, &#xa;codigos_existentes)&#xa;" style="text;strokeColor=none;fillColor=none;align=left;verticalAlign=top;spacingLeft=4;spacingRight=4;overflow=hidden;rotatable=0;points=[[0,0.5],[1,0.5]];portConstraint=eastwest;" parent="2" vertex="1">
          <mxGeometry y="34" width="160" height="76" as="geometry" />
        </mxCell>
        <mxCell id="TbL9d9kvdTnYUlT3MyRq-7" value="" style="endArrow=open;endFill=1;endSize=12;html=1;rounded=0;" edge="1" parent="1" source="TbL9d9kvdTnYUlT3MyRq-68" target="-zZR3hwUNW0yP9_59fh9-1">
          <mxGeometry width="160" relative="1" as="geometry">
            <mxPoint x="410" y="410.7857142857142" as="sourcePoint" />
            <mxPoint x="571" y="289" as="targetPoint" />
          </mxGeometry>
        </mxCell>
        <mxCell id="TbL9d9kvdTnYUlT3MyRq-36" style="edgeStyle=orthogonalEdgeStyle;rounded=0;orthogonalLoop=1;jettySize=auto;html=1;" edge="1" parent="1" source="TbL9d9kvdTnYUlT3MyRq-8" target="0vM7nS2TvoHmR3BYnDFP-57">
          <mxGeometry relative="1" as="geometry">
            <Array as="points">
              <mxPoint x="78" y="841" />
              <mxPoint x="376" y="841" />
            </Array>
          </mxGeometry>
        </mxCell>
        <mxCell id="TbL9d9kvdTnYUlT3MyRq-39" style="edgeStyle=orthogonalEdgeStyle;rounded=0;orthogonalLoop=1;jettySize=auto;html=1;" edge="1" parent="1" source="TbL9d9kvdTnYUlT3MyRq-8" target="0vM7nS2TvoHmR3BYnDFP-65">
          <mxGeometry relative="1" as="geometry">
            <Array as="points">
              <mxPoint x="78" y="843" />
              <mxPoint x="512" y="843" />
              <mxPoint x="512" y="841" />
            </Array>
          </mxGeometry>
        </mxCell>
        <mxCell id="TbL9d9kvdTnYUlT3MyRq-8" value="ValorAusenteEmListaExeption" style="swimlane;fontStyle=1;align=center;verticalAlign=top;childLayout=stackLayout;horizontal=1;startSize=26;horizontalStack=0;resizeParent=1;resizeParentMax=0;resizeLast=0;collapsible=1;marginBottom=0;whiteSpace=wrap;html=1;" vertex="1" parent="1">
          <mxGeometry x="-28" y="872" width="211" height="60" as="geometry" />
        </mxCell>
        <mxCell id="TbL9d9kvdTnYUlT3MyRq-10" value="" style="line;strokeWidth=1;fillColor=none;align=left;verticalAlign=middle;spacingTop=-1;spacingLeft=3;spacingRight=3;rotatable=0;labelPosition=right;points=[];portConstraint=eastwest;strokeColor=inherit;" vertex="1" parent="TbL9d9kvdTnYUlT3MyRq-8">
          <mxGeometry y="26" width="211" height="8" as="geometry" />
        </mxCell>
        <mxCell id="TbL9d9kvdTnYUlT3MyRq-11" value="+ &amp;lt;create&amp;gt; (message)" style="text;strokeColor=none;fillColor=none;align=left;verticalAlign=top;spacingLeft=4;spacingRight=4;overflow=hidden;rotatable=0;points=[[0,0.5],[1,0.5]];portConstraint=eastwest;whiteSpace=wrap;html=1;" vertex="1" parent="TbL9d9kvdTnYUlT3MyRq-8">
          <mxGeometry y="34" width="211" height="26" as="geometry" />
        </mxCell>
        <mxCell id="TbL9d9kvdTnYUlT3MyRq-37" style="edgeStyle=orthogonalEdgeStyle;rounded=0;orthogonalLoop=1;jettySize=auto;html=1;" edge="1" parent="1" source="TbL9d9kvdTnYUlT3MyRq-12" target="0vM7nS2TvoHmR3BYnDFP-57">
          <mxGeometry relative="1" as="geometry">
            <Array as="points">
              <mxPoint x="476" y="841" />
              <mxPoint x="378" y="841" />
            </Array>
          </mxGeometry>
        </mxCell>
        <mxCell id="TbL9d9kvdTnYUlT3MyRq-38" style="edgeStyle=orthogonalEdgeStyle;rounded=0;orthogonalLoop=1;jettySize=auto;html=1;" edge="1" parent="1" source="TbL9d9kvdTnYUlT3MyRq-12" target="0vM7nS2TvoHmR3BYnDFP-65">
          <mxGeometry relative="1" as="geometry">
            <Array as="points">
              <mxPoint x="473" y="841" />
            </Array>
          </mxGeometry>
        </mxCell>
        <mxCell id="TbL9d9kvdTnYUlT3MyRq-12" value="ValorNegativoExeptionOuNuloExeption" style="swimlane;fontStyle=1;align=center;verticalAlign=top;childLayout=stackLayout;horizontal=1;startSize=26;horizontalStack=0;resizeParent=1;resizeParentMax=0;resizeLast=0;collapsible=1;marginBottom=0;whiteSpace=wrap;html=1;" vertex="1" parent="1">
          <mxGeometry x="326" y="878" width="282" height="60" as="geometry" />
        </mxCell>
        <mxCell id="TbL9d9kvdTnYUlT3MyRq-13" value="" style="line;strokeWidth=1;fillColor=none;align=left;verticalAlign=middle;spacingTop=-1;spacingLeft=3;spacingRight=3;rotatable=0;labelPosition=right;points=[];portConstraint=eastwest;strokeColor=inherit;" vertex="1" parent="TbL9d9kvdTnYUlT3MyRq-12">
          <mxGeometry y="26" width="282" height="8" as="geometry" />
        </mxCell>
        <mxCell id="TbL9d9kvdTnYUlT3MyRq-14" value="+ &amp;lt;create&amp;gt; (message)" style="text;strokeColor=none;fillColor=none;align=left;verticalAlign=top;spacingLeft=4;spacingRight=4;overflow=hidden;rotatable=0;points=[[0,0.5],[1,0.5]];portConstraint=eastwest;whiteSpace=wrap;html=1;" vertex="1" parent="TbL9d9kvdTnYUlT3MyRq-12">
          <mxGeometry y="34" width="282" height="26" as="geometry" />
        </mxCell>
        <mxCell id="TbL9d9kvdTnYUlT3MyRq-35" style="edgeStyle=orthogonalEdgeStyle;rounded=0;orthogonalLoop=1;jettySize=auto;html=1;" edge="1" parent="1" source="TbL9d9kvdTnYUlT3MyRq-15" target="0vM7nS2TvoHmR3BYnDFP-57">
          <mxGeometry relative="1" as="geometry" />
        </mxCell>
        <mxCell id="TbL9d9kvdTnYUlT3MyRq-40" style="edgeStyle=orthogonalEdgeStyle;rounded=0;orthogonalLoop=1;jettySize=auto;html=1;" edge="1" parent="1" source="TbL9d9kvdTnYUlT3MyRq-15" target="0vM7nS2TvoHmR3BYnDFP-65">
          <mxGeometry relative="1" as="geometry">
            <Array as="points">
              <mxPoint x="152" y="695" />
              <mxPoint x="152" y="841" />
            </Array>
          </mxGeometry>
        </mxCell>
        <mxCell id="TbL9d9kvdTnYUlT3MyRq-15" value="ValorVazioExeption" style="swimlane;fontStyle=1;align=center;verticalAlign=top;childLayout=stackLayout;horizontal=1;startSize=26;horizontalStack=0;resizeParent=1;resizeParentMax=0;resizeLast=0;collapsible=1;marginBottom=0;whiteSpace=wrap;html=1;" vertex="1" parent="1">
          <mxGeometry x="-73" y="665" width="211" height="60" as="geometry" />
        </mxCell>
        <mxCell id="TbL9d9kvdTnYUlT3MyRq-16" value="" style="line;strokeWidth=1;fillColor=none;align=left;verticalAlign=middle;spacingTop=-1;spacingLeft=3;spacingRight=3;rotatable=0;labelPosition=right;points=[];portConstraint=eastwest;strokeColor=inherit;" vertex="1" parent="TbL9d9kvdTnYUlT3MyRq-15">
          <mxGeometry y="26" width="211" height="8" as="geometry" />
        </mxCell>
        <mxCell id="TbL9d9kvdTnYUlT3MyRq-17" value="+ &amp;lt;create&amp;gt; (message)" style="text;strokeColor=none;fillColor=none;align=left;verticalAlign=top;spacingLeft=4;spacingRight=4;overflow=hidden;rotatable=0;points=[[0,0.5],[1,0.5]];portConstraint=eastwest;whiteSpace=wrap;html=1;" vertex="1" parent="TbL9d9kvdTnYUlT3MyRq-15">
          <mxGeometry y="34" width="211" height="26" as="geometry" />
        </mxCell>
        <mxCell id="TbL9d9kvdTnYUlT3MyRq-41" value="DaoGenero" style="swimlane;fontStyle=1;align=center;verticalAlign=top;childLayout=stackLayout;horizontal=1;startSize=26;horizontalStack=0;resizeParent=1;resizeParentMax=0;resizeLast=0;collapsible=1;marginBottom=0;whiteSpace=wrap;html=1;" vertex="1" parent="1">
          <mxGeometry x="968" y="677" width="160" height="78" as="geometry" />
        </mxCell>
        <mxCell id="TbL9d9kvdTnYUlT3MyRq-43" value="" style="line;strokeWidth=1;fillColor=none;align=left;verticalAlign=middle;spacingTop=-1;spacingLeft=3;spacingRight=3;rotatable=0;labelPosition=right;points=[];portConstraint=eastwest;strokeColor=inherit;" vertex="1" parent="TbL9d9kvdTnYUlT3MyRq-41">
          <mxGeometry y="26" width="160" height="8" as="geometry" />
        </mxCell>
        <mxCell id="TbL9d9kvdTnYUlT3MyRq-44" value="+ &amp;lt;create&amp;gt; (datasource)&lt;br&gt;+ add(key, nome)" style="text;strokeColor=none;fillColor=none;align=left;verticalAlign=top;spacingLeft=4;spacingRight=4;overflow=hidden;rotatable=0;points=[[0,0.5],[1,0.5]];portConstraint=eastwest;whiteSpace=wrap;html=1;" vertex="1" parent="TbL9d9kvdTnYUlT3MyRq-41">
          <mxGeometry y="34" width="160" height="44" as="geometry" />
        </mxCell>
        <mxCell id="TbL9d9kvdTnYUlT3MyRq-45" value="DaoAlimento" style="swimlane;fontStyle=1;align=center;verticalAlign=top;childLayout=stackLayout;horizontal=1;startSize=26;horizontalStack=0;resizeParent=1;resizeParentMax=0;resizeLast=0;collapsible=1;marginBottom=0;whiteSpace=wrap;html=1;" vertex="1" parent="1">
          <mxGeometry x="-271" y="217" width="160" height="78" as="geometry" />
        </mxCell>
        <mxCell id="TbL9d9kvdTnYUlT3MyRq-46" value="" style="line;strokeWidth=1;fillColor=none;align=left;verticalAlign=middle;spacingTop=-1;spacingLeft=3;spacingRight=3;rotatable=0;labelPosition=right;points=[];portConstraint=eastwest;strokeColor=inherit;" vertex="1" parent="TbL9d9kvdTnYUlT3MyRq-45">
          <mxGeometry y="26" width="160" height="8" as="geometry" />
        </mxCell>
        <mxCell id="TbL9d9kvdTnYUlT3MyRq-47" value="+ &amp;lt;create&amp;gt; (datasource)&lt;br&gt;+ add(key, nome, preco)" style="text;strokeColor=none;fillColor=none;align=left;verticalAlign=top;spacingLeft=4;spacingRight=4;overflow=hidden;rotatable=0;points=[[0,0.5],[1,0.5]];portConstraint=eastwest;whiteSpace=wrap;html=1;" vertex="1" parent="TbL9d9kvdTnYUlT3MyRq-45">
          <mxGeometry y="34" width="160" height="44" as="geometry" />
        </mxCell>
        <mxCell id="TbL9d9kvdTnYUlT3MyRq-48" value="DaoRelatorio" style="swimlane;fontStyle=1;align=center;verticalAlign=top;childLayout=stackLayout;horizontal=1;startSize=26;horizontalStack=0;resizeParent=1;resizeParentMax=0;resizeLast=0;collapsible=1;marginBottom=0;whiteSpace=wrap;html=1;" vertex="1" parent="1">
          <mxGeometry x="690" y="148" width="160" height="78" as="geometry" />
        </mxCell>
        <mxCell id="TbL9d9kvdTnYUlT3MyRq-49" value="" style="line;strokeWidth=1;fillColor=none;align=left;verticalAlign=middle;spacingTop=-1;spacingLeft=3;spacingRight=3;rotatable=0;labelPosition=right;points=[];portConstraint=eastwest;strokeColor=inherit;" vertex="1" parent="TbL9d9kvdTnYUlT3MyRq-48">
          <mxGeometry y="26" width="160" height="8" as="geometry" />
        </mxCell>
        <mxCell id="TbL9d9kvdTnYUlT3MyRq-50" value="+ &amp;lt;create&amp;gt; (datasource)&lt;br&gt;+ add(key, objeto, qtd)" style="text;strokeColor=none;fillColor=none;align=left;verticalAlign=top;spacingLeft=4;spacingRight=4;overflow=hidden;rotatable=0;points=[[0,0.5],[1,0.5]];portConstraint=eastwest;whiteSpace=wrap;html=1;" vertex="1" parent="TbL9d9kvdTnYUlT3MyRq-48">
          <mxGeometry y="34" width="160" height="44" as="geometry" />
        </mxCell>
        <mxCell id="TbL9d9kvdTnYUlT3MyRq-51" value="DaoFilme" style="swimlane;fontStyle=1;align=center;verticalAlign=top;childLayout=stackLayout;horizontal=1;startSize=26;horizontalStack=0;resizeParent=1;resizeParentMax=0;resizeLast=0;collapsible=1;marginBottom=0;whiteSpace=wrap;html=1;" vertex="1" parent="1">
          <mxGeometry x="815" y="459" width="160" height="78" as="geometry" />
        </mxCell>
        <mxCell id="TbL9d9kvdTnYUlT3MyRq-52" value="" style="line;strokeWidth=1;fillColor=none;align=left;verticalAlign=middle;spacingTop=-1;spacingLeft=3;spacingRight=3;rotatable=0;labelPosition=right;points=[];portConstraint=eastwest;strokeColor=inherit;" vertex="1" parent="TbL9d9kvdTnYUlT3MyRq-51">
          <mxGeometry y="26" width="160" height="8" as="geometry" />
        </mxCell>
        <mxCell id="TbL9d9kvdTnYUlT3MyRq-53" value="+ &amp;lt;create&amp;gt; (datasource)&lt;br&gt;+ add(key, nome, preco)" style="text;strokeColor=none;fillColor=none;align=left;verticalAlign=top;spacingLeft=4;spacingRight=4;overflow=hidden;rotatable=0;points=[[0,0.5],[1,0.5]];portConstraint=eastwest;whiteSpace=wrap;html=1;" vertex="1" parent="TbL9d9kvdTnYUlT3MyRq-51">
          <mxGeometry y="34" width="160" height="44" as="geometry" />
        </mxCell>
        <mxCell id="TbL9d9kvdTnYUlT3MyRq-54" value="" style="endArrow=open;endFill=1;endSize=12;html=1;rounded=0;" edge="1" parent="1" source="TbL9d9kvdTnYUlT3MyRq-45" target="0vM7nS2TvoHmR3BYnDFP-37">
          <mxGeometry width="160" relative="1" as="geometry">
            <mxPoint x="4" y="448" as="sourcePoint" />
            <mxPoint x="164" y="448" as="targetPoint" />
          </mxGeometry>
        </mxCell>
        <mxCell id="TbL9d9kvdTnYUlT3MyRq-55" value="" style="endArrow=open;endFill=1;endSize=12;html=1;rounded=0;" edge="1" parent="1" source="TbL9d9kvdTnYUlT3MyRq-51" target="0vM7nS2TvoHmR3BYnDFP-29">
          <mxGeometry width="160" relative="1" as="geometry">
            <mxPoint x="759" y="467" as="sourcePoint" />
            <mxPoint x="919" y="467" as="targetPoint" />
          </mxGeometry>
        </mxCell>
        <mxCell id="TbL9d9kvdTnYUlT3MyRq-56" value="" style="endArrow=open;endFill=1;endSize=12;html=1;rounded=0;" edge="1" parent="1" source="TbL9d9kvdTnYUlT3MyRq-41" target="0vM7nS2TvoHmR3BYnDFP-53">
          <mxGeometry width="160" relative="1" as="geometry">
            <mxPoint x="945" y="580" as="sourcePoint" />
            <mxPoint x="1105" y="580" as="targetPoint" />
          </mxGeometry>
        </mxCell>
        <mxCell id="TbL9d9kvdTnYUlT3MyRq-57" value="" style="endArrow=open;endFill=1;endSize=12;html=1;rounded=0;" edge="1" parent="1" source="TbL9d9kvdTnYUlT3MyRq-48" target="-zZR3hwUNW0yP9_59fh9-5">
          <mxGeometry width="160" relative="1" as="geometry">
            <mxPoint x="547" y="220" as="sourcePoint" />
            <mxPoint x="707" y="220" as="targetPoint" />
          </mxGeometry>
        </mxCell>
        <mxCell id="TbL9d9kvdTnYUlT3MyRq-58" value="DAO" style="swimlane;fontStyle=1;align=center;verticalAlign=top;childLayout=stackLayout;horizontal=1;startSize=26;horizontalStack=0;resizeParent=1;resizeParentMax=0;resizeLast=0;collapsible=1;marginBottom=0;whiteSpace=wrap;html=1;" vertex="1" parent="1">
          <mxGeometry x="988" y="134" width="160" height="173" as="geometry" />
        </mxCell>
        <mxCell id="TbL9d9kvdTnYUlT3MyRq-59" value="- datasource&lt;br&gt;- cache" style="text;strokeColor=none;fillColor=none;align=left;verticalAlign=top;spacingLeft=4;spacingRight=4;overflow=hidden;rotatable=0;points=[[0,0.5],[1,0.5]];portConstraint=eastwest;whiteSpace=wrap;html=1;" vertex="1" parent="TbL9d9kvdTnYUlT3MyRq-58">
          <mxGeometry y="26" width="160" height="35" as="geometry" />
        </mxCell>
        <mxCell id="TbL9d9kvdTnYUlT3MyRq-60" value="" style="line;strokeWidth=1;fillColor=none;align=left;verticalAlign=middle;spacingTop=-1;spacingLeft=3;spacingRight=3;rotatable=0;labelPosition=right;points=[];portConstraint=eastwest;strokeColor=inherit;" vertex="1" parent="TbL9d9kvdTnYUlT3MyRq-58">
          <mxGeometry y="61" width="160" height="8" as="geometry" />
        </mxCell>
        <mxCell id="TbL9d9kvdTnYUlT3MyRq-61" value="+&amp;lt;create&amp;gt;(datasource)&lt;br&gt;+ load()&lt;br&gt;+ dump()&lt;br&gt;+ add(key, obj)&lt;br&gt;+ get(key)&lt;br&gt;+ get()" style="text;strokeColor=none;fillColor=none;align=left;verticalAlign=top;spacingLeft=4;spacingRight=4;overflow=hidden;rotatable=0;points=[[0,0.5],[1,0.5]];portConstraint=eastwest;whiteSpace=wrap;html=1;" vertex="1" parent="TbL9d9kvdTnYUlT3MyRq-58">
          <mxGeometry y="69" width="160" height="104" as="geometry" />
        </mxCell>
        <mxCell id="TbL9d9kvdTnYUlT3MyRq-62" value="" style="endArrow=block;endSize=16;endFill=0;html=1;rounded=0;" edge="1" parent="1" source="TbL9d9kvdTnYUlT3MyRq-48" target="TbL9d9kvdTnYUlT3MyRq-58">
          <mxGeometry width="160" relative="1" as="geometry">
            <mxPoint x="736" y="358" as="sourcePoint" />
            <mxPoint x="896" y="358" as="targetPoint" />
          </mxGeometry>
        </mxCell>
        <mxCell id="TbL9d9kvdTnYUlT3MyRq-63" value="" style="endArrow=block;endSize=16;endFill=0;html=1;rounded=0;" edge="1" parent="1" source="TbL9d9kvdTnYUlT3MyRq-45" target="TbL9d9kvdTnYUlT3MyRq-58">
          <mxGeometry width="160" relative="1" as="geometry">
            <mxPoint x="-125" y="84" as="sourcePoint" />
            <mxPoint x="615" y="129" as="targetPoint" />
            <Array as="points">
              <mxPoint x="-194" y="131" />
              <mxPoint x="864" y="131" />
            </Array>
          </mxGeometry>
        </mxCell>
        <mxCell id="TbL9d9kvdTnYUlT3MyRq-64" value="" style="endArrow=block;endSize=16;endFill=0;html=1;rounded=0;" edge="1" parent="1" source="TbL9d9kvdTnYUlT3MyRq-41" target="TbL9d9kvdTnYUlT3MyRq-58">
          <mxGeometry width="160" relative="1" as="geometry">
            <mxPoint x="867" y="197" as="sourcePoint" />
            <mxPoint x="1088" y="230" as="targetPoint" />
          </mxGeometry>
        </mxCell>
        <mxCell id="TbL9d9kvdTnYUlT3MyRq-65" value="" style="endArrow=block;endSize=16;endFill=0;html=1;rounded=0;" edge="1" parent="1" source="TbL9d9kvdTnYUlT3MyRq-51" target="TbL9d9kvdTnYUlT3MyRq-58">
          <mxGeometry width="160" relative="1" as="geometry">
            <mxPoint x="877" y="207" as="sourcePoint" />
            <mxPoint x="1098" y="240" as="targetPoint" />
          </mxGeometry>
        </mxCell>
        <mxCell id="TbL9d9kvdTnYUlT3MyRq-68" value="AbstractControladorItens" style="swimlane;fontStyle=1;align=center;verticalAlign=top;childLayout=stackLayout;horizontal=1;startSize=26;horizontalStack=0;resizeParent=1;resizeParentMax=0;resizeLast=0;collapsible=1;marginBottom=0;whiteSpace=wrap;html=1;" vertex="1" parent="1">
          <mxGeometry x="254" y="347" width="160" height="202" as="geometry" />
        </mxCell>
        <mxCell id="TbL9d9kvdTnYUlT3MyRq-69" value="- dao&lt;br&gt;- tela&lt;br&gt;-controlador_relatorio&lt;br&gt;-label" style="text;strokeColor=none;fillColor=none;align=left;verticalAlign=top;spacingLeft=4;spacingRight=4;overflow=hidden;rotatable=0;points=[[0,0.5],[1,0.5]];portConstraint=eastwest;whiteSpace=wrap;html=1;" vertex="1" parent="TbL9d9kvdTnYUlT3MyRq-68">
          <mxGeometry y="26" width="160" height="68" as="geometry" />
        </mxCell>
        <mxCell id="TbL9d9kvdTnYUlT3MyRq-70" value="" style="line;strokeWidth=1;fillColor=none;align=left;verticalAlign=middle;spacingTop=-1;spacingLeft=3;spacingRight=3;rotatable=0;labelPosition=right;points=[];portConstraint=eastwest;strokeColor=inherit;" vertex="1" parent="TbL9d9kvdTnYUlT3MyRq-68">
          <mxGeometry y="94" width="160" height="8" as="geometry" />
        </mxCell>
        <mxCell id="TbL9d9kvdTnYUlT3MyRq-71" value="+ getters()&lt;br&gt;+ gerencia_sistema()&lt;br&gt;+ adiciona_item()&lt;br&gt;+ remove_item()&lt;br&gt;+ edita_item()&lt;br&gt;+ vende_item()" style="text;strokeColor=none;fillColor=none;align=left;verticalAlign=top;spacingLeft=4;spacingRight=4;overflow=hidden;rotatable=0;points=[[0,0.5],[1,0.5]];portConstraint=eastwest;whiteSpace=wrap;html=1;" vertex="1" parent="TbL9d9kvdTnYUlT3MyRq-68">
          <mxGeometry y="102" width="160" height="100" as="geometry" />
        </mxCell>
      </root>
    </mxGraphModel>
  </diagram>
</mxfile>
